# xmcd CD database file
#
# Track frame offsets:
#	150
#	22160
#	40437
#	62437
#	91970
#
# Disc length: 1297 seconds
#
# Revision: 0
# Processed by: cddbd v1.5PL3 Copyright (c) Steve Scherf et al.
# Submitted via: CDex 1.51
#
DISCID=3b050f05
DTITLE=MISSION - 素肌の季節
DYEAR=1998
DGENRE=JPop
TTITLE0=素肌の季節
TTITLE1=Come with me
TTITLE2=素肌の季節 (original karaoke)
TTITLE3=Come with me (original karaoke)
TTITLE4=CD-EXTRA
EXTD=YEAR: 1998
EXTT0=
EXTT1=
EXTT2=
EXTT3=
EXTT4=
PLAYORDER=
